Note : There Might Be Some Glitches in Hindi Audio ,As there is no r perfect Sync in Hindi Audio With BR-Rip.

::General::
Complete name: The Godfather Part I 1972 720p BrRip 1GB x264 [Dual-Audio] Eng-Hin NimitMak SilverRG
Director: Francis Ford Coppola
Format: MPEG-4
File size: 984 MiB
Duration: 2h 57mn
Overall Bitrate: 775 Kbps
Language: Dual-Audio [Eng-Hin]
Sub Title: English (.srt) Can Be Turned Off
Encoded date: 2012-09-29
Writing application: MeGui
Writing library: x264 core 100 r1659 57b2e56
Encoder: NimitMak
Source: BR-Rip X264 YIFY (Thanks)

::IMDB INFO::
IMDB Link:http://www.imdb.com/title/tt0068646/
IMDB Rating:9.2/10
Release Date:24 March 1972 (USA)
Genre: Crime | Drama 
YouTube

::Video::
ID: 1
Format: AVC
Format/Info: Advanced Video Codec
Format profile: High@L5.0
Format settings, CABAC: Yes
Format settings, ReFrames: 10 frames
Codec ID: V_MPEG4/ISO/AVC
Nominal Bitrate: 677 Kbps/ 3146 Kbps(Max) 
Width: 1280 pixels
Height: 720 pixels
Display aspect ratio: 16:9
Frame rate: 23.976 fps
Color space: YUV
Chroma subsampling: 4:2:0
Bit depth: 8 bits
Scan type: Progressive
Writing library: x264 core 100 r1659 57b2e56



::Audio #1::
ID: 2
Format: AAC
Format/Info: Advanced Audio Codec
Format profile: HE-AAC / LC
Codec ID: 40
Duration: 2h 57mn
Bit rate mode: Variable
Bit rate: 32.0 Kbps
Maximum bit rate: 46.5 Kbps
Channel(s): 2 channels
Channel positions: Front: L R
Sampling rate: 22.05 KHz / 11.025 KHz
Compression mode: Lossy
Stream size: 40.5 MiB (4%)
Title: English - NimitMak SilverRG
Language: English

::Audio #2::
ID: 3
Format: MPEG Audio
Format version: Version 1
Format profile: Layer 3
Mode: Joint stereo
Mode extension: MS Stereo
Codec ID: 6B
Duration: 2h 57mn
Bit rate mode: Constant
Bit rate: 64.0 Kbps
Maximum bit rate: 66.9 Kbps
Channel(s) : 2 channels
Sampling rate : 44.1 KHz
Compression mode: Lossy
Stream size: 81.0 MiB (8%)
Title: Hindi - NimitMak SilverRG
Language : Hindi

::Text #1::
ID: 4
Format: Timed text
Codec ID: tx3g
Duration: 2h 52mn
Bit rate mode: Variable
Bit rate: 45 bps
Stream size : 57.5 KiB (0%)
Title: English - NimitMak SilverRG
Language: English

::Cast::
Marlon Brando, Al Pacino, James Caan, Richard S. Castellano, Robert Duvall, Sterling Hayden, John Marley.

::Plot::
The aging patriarch of an organized crime dynasty transfers control of his clandestine empire to his reluctant son.

Screens :  
http://imageshack.us/a/img713/5405/thegodfatherparti197272.jpg
